<svg width="21" height="20" viewBox="0 0 21 20" fill="none" xmlns="http://www.w3.org/2000/svg">
<g id="Group">
<path id="Vector" d="M10.5 18.3334C11.6493 18.3347 12.7875 18.1198 13.8493 17.7009C14.9111 17.282 15.8755 16.6675 16.6871 15.8925C17.5008 15.1195 18.1461 14.201 18.5859 13.1898C19.0257 12.1786 19.2514 11.0946 19.25 10C19.2514 8.90548 19.0257 7.82146 18.5859 6.81023C18.1461 5.79901 17.5008 4.88051 16.6871 4.10753C15.8755 3.33259 14.9111 2.71803 13.8493 2.29916C12.7875 1.88028 11.6493 1.66534 10.5 1.66669C9.35073 1.66534 8.2125 1.88028 7.15071 2.29916C6.08893 2.71803 5.12451 3.33259 4.31287 4.10753C3.49919 4.88051 2.85391 5.79901 2.41409 6.81023C1.97427 7.82146 1.74858 8.90548 1.75 10C1.74858 11.0946 1.97427 12.1786 2.41409 13.1898C2.85391 14.201 3.49919 15.1195 4.31287 15.8925C5.12451 16.6675 6.08893 17.282 7.15071 17.7009C8.2125 18.1198 9.35073 18.3347 10.5 18.3334Z" stroke="#FF831A" stroke-width="2" stroke-linejoin="round"/>
<path id="Vector_2" fill-rule="evenodd" clip-rule="evenodd" d="M10.5 15.4167C10.7901 15.4167 11.0683 15.307 11.2734 15.1116C11.4785 14.9163 11.5938 14.6513 11.5938 14.375C11.5938 14.0988 11.4785 13.8338 11.2734 13.6385C11.0683 13.4431 10.7901 13.3334 10.5 13.3334C10.2099 13.3334 9.93172 13.4431 9.7266 13.6385C9.52148 13.8338 9.40625 14.0988 9.40625 14.375C9.40625 14.6513 9.52148 14.9163 9.7266 15.1116C9.93172 15.307 10.2099 15.4167 10.5 15.4167Z" fill="#FF831A"/>
<path id="Vector_3" d="M10.5 5V11.6667" stroke="#FF831A" stroke-width="2" stroke-linecap="round" stroke-linejoin="round"/>
</g>
</svg>
