<svg width="20" height="20" viewBox="0 0 20 20" fill="none" xmlns="http://www.w3.org/2000/svg">
<g id="Group">
<path id="Vector" d="M4.448 5.96999C4.59947 4.60342 5.24963 3.34071 6.27402 2.42359C7.29841 1.50647 8.62506 0.999374 10 0.999374C11.375 0.999374 12.7016 1.50647 13.726 2.42359C14.7504 3.34071 15.4005 4.60342 15.552 5.96999L15.804 8.23599L15.81 8.29299C15.9391 9.41702 16.3052 10.5009 16.884 11.473L16.914 11.523L17.491 12.486C18.016 13.36 18.278 13.797 18.221 14.156C18.1834 14.3943 18.0608 14.6109 17.876 14.766C17.597 15 17.087 15 16.068 15H3.932C2.912 15 2.402 15 2.124 14.767C1.93861 14.6118 1.81569 14.3948 1.778 14.156C1.722 13.797 1.984 13.36 2.508 12.486L3.087 11.522L3.117 11.472C3.69536 10.5001 4.06107 9.41659 4.19 8.29299L4.196 8.23599L4.448 5.96999Z" stroke="black" stroke-width="2"/>
<path id="Vector_2" d="M6 15C6 16.0609 6.42143 17.0783 7.17157 17.8284C7.92172 18.5786 8.93913 19 10 19C11.0609 19 12.0783 18.5786 12.8284 17.8284C13.5786 17.0783 14 16.0609 14 15" stroke="black" stroke-width="2" stroke-linecap="round"/>
</g>
</svg>
