<svg width="17" height="17" viewBox="0 0 17 17" fill="none" xmlns="http://www.w3.org/2000/svg">
<g id="Group">
<path id="Vector" fill-rule="evenodd" clip-rule="evenodd" d="M16.455 1.25916C16.6893 1.49357 16.821 1.81146 16.821 2.14291C16.821 2.47437 16.6893 2.79225 16.455 3.02666L7.08584 12.3958C6.96202 12.5197 6.81502 12.6179 6.65323 12.6849C6.49145 12.752 6.31804 12.7865 6.14292 12.7865C5.9678 12.7865 5.79439 12.752 5.6326 12.6849C5.47082 12.6179 5.32382 12.5197 5.2 12.3958L0.545001 7.74166C0.425614 7.62635 0.330386 7.48842 0.264875 7.33592C0.199363 7.18341 0.164881 7.01939 0.163438 6.85341C0.161996 6.68744 0.193623 6.52284 0.256474 6.36922C0.319326 6.2156 0.412142 6.07603 0.529508 5.95867C0.646874 5.8413 0.786438 5.74849 0.940059 5.68563C1.09368 5.62278 1.25828 5.59116 1.42425 5.5926C1.59023 5.59404 1.75425 5.62852 1.90676 5.69403C2.05926 5.75955 2.19719 5.85477 2.3125 5.97416L6.1425 9.80416L14.6867 1.25916C14.8028 1.143 14.9406 1.05086 15.0923 0.987988C15.244 0.92512 15.4066 0.892761 15.5708 0.892761C15.7351 0.892761 15.8977 0.92512 16.0494 0.987988C16.2011 1.05086 16.3389 1.143 16.455 1.25916Z" fill="#04C65D"/>
</g>
</svg>
