<svg width="44" height="44" viewBox="0 0 44 44" fill="none" xmlns="http://www.w3.org/2000/svg">
<g id="comment_icon" filter="url(#filter0_d_55_6018)">
<path id="Vector" d="M18 33.3334C17.6464 33.3334 17.3072 33.1929 17.0572 32.9428C16.8071 32.6928 16.6667 32.3536 16.6667 32V28H11.3333C10.6261 28 9.9478 27.7191 9.4477 27.219C8.94761 26.7189 8.66666 26.0406 8.66666 25.3334V9.33335C8.66666 8.62611 8.94761 7.94783 9.4477 7.44774C9.9478 6.94764 10.6261 6.66669 11.3333 6.66669H32.6667C33.3739 6.66669 34.0522 6.94764 34.5523 7.44774C35.0524 7.94783 35.3333 8.62611 35.3333 9.33335V25.3334C35.3333 26.0406 35.0524 26.7189 34.5523 27.219C34.0522 27.7191 33.3739 28 32.6667 28H24.5333L19.6 32.9467C19.3333 33.2 19 33.3334 18.6667 33.3334H18ZM19.3333 25.3334V29.44L23.44 25.3334H32.6667V9.33335H11.3333V25.3334H19.3333Z" fill="#F7FEFC"/>
</g>
<defs>
<filter id="filter0_d_55_6018" x="-2" y="-2" width="48" height="48" filterUnits="userSpaceOnUse" color-interpolation-filters="sRGB">
<feFlood flood-opacity="0" result="BackgroundImageFix"/>
<feColorMatrix in="SourceAlpha" type="matrix" values="0 0 0 0 0 0 0 0 0 0 0 0 0 0 0 0 0 0 127 0" result="hardAlpha"/>
<feOffset dy="2"/>
<feGaussianBlur stdDeviation="4"/>
<feComposite in2="hardAlpha" operator="out"/>
<feColorMatrix type="matrix" values="0 0 0 0 0 0 0 0 0 0 0 0 0 0 0 0 0 0 1 0"/>
<feBlend mode="normal" in2="BackgroundImageFix" result="effect1_dropShadow_55_6018"/>
<feBlend mode="normal" in="SourceGraphic" in2="effect1_dropShadow_55_6018" result="shape"/>
</filter>
</defs>
</svg>
