<svg width="20" height="20" viewBox="0 0 20 20" fill="none" xmlns="http://www.w3.org/2000/svg">
<g id="comment_icon">
<path id="Vector" d="M7.49999 18.3333C7.27898 18.3333 7.06701 18.2455 6.91073 18.0892C6.75445 17.933 6.66666 17.721 6.66666 17.5V15H3.33332C2.8913 15 2.46737 14.8244 2.15481 14.5118C1.84225 14.1993 1.66666 13.7754 1.66666 13.3333V3.33332C1.66666 2.8913 1.84225 2.46737 2.15481 2.15481C2.46737 1.84225 2.8913 1.66666 3.33332 1.66666H16.6667C17.1087 1.66666 17.5326 1.84225 17.8452 2.15481C18.1577 2.46737 18.3333 2.8913 18.3333 3.33332V13.3333C18.3333 13.7754 18.1577 14.1993 17.8452 14.5118C17.5326 14.8244 17.1087 15 16.6667 15H11.5833L8.49999 18.0917C8.33332 18.25 8.12499 18.3333 7.91666 18.3333H7.49999ZM8.33332 13.3333V15.9L10.9 13.3333H16.6667V3.33332H3.33332V13.3333H8.33332Z" fill="#F7FEFC"/>
</g>
</svg>
