<svg width="32" height="32" viewBox="0 0 32 32" fill="none" xmlns="http://www.w3.org/2000/svg">
<g id="Group" filter="url(#filter0_d_2058_257)">
<path id="Vector" fill-rule="evenodd" clip-rule="evenodd" d="M10.3293 7.45603C11.8006 5.77766 13.4413 4.2558 15.2253 2.91469C15.4514 2.75331 15.7222 2.66656 16 2.66656C16.2778 2.66656 16.5486 2.75331 16.7747 2.91469C18.5546 4.26077 20.1948 5.78218 21.6707 7.45603C24.7787 11.008 26.6667 14.784 26.6667 18.6667C26.6667 21.4957 25.5429 24.2088 23.5425 26.2092C21.5421 28.2096 18.829 29.3334 16 29.3334C13.171 29.3334 10.4579 28.2096 8.45754 26.2092C6.45715 24.2088 5.33334 21.4957 5.33334 18.6667C5.33334 14.784 7.22001 11.0094 10.3293 7.45603ZM16.5907 6.17869C16.3963 6.01171 16.1994 5.8477 16 5.68669L15.4093 6.18003C14.3154 7.11729 13.2889 8.13046 12.3373 9.21203C9.61334 12.324 8.00001 15.5507 8.00001 18.6667C8.00001 20.572 8.66668 22.32 9.77734 23.6934C9.75754 23.4877 9.74731 23.2813 9.74668 23.0747C9.74668 20.844 10.808 18.7214 12.54 16.7414C13.34 15.828 14.2467 14.9667 15.2307 14.248C15.4569 14.0863 15.728 13.9994 16.006 13.9994C16.2841 13.9994 16.5551 14.0863 16.7813 14.248C17.768 14.9547 18.6747 15.8307 19.472 16.7414C21.2053 18.7214 22.2653 20.844 22.2653 23.0747C22.2653 23.2774 22.2556 23.4782 22.236 23.6774C23.3795 22.2579 24.002 20.4894 24 18.6667C24 15.5494 22.3867 12.324 19.6627 9.21203C18.7112 8.13 17.6847 7.11638 16.5907 6.17869ZM16.0053 17.048C15.492 17.504 14.9987 17.9814 14.5467 18.4987C13.2 20.0374 12.4133 21.6107 12.4133 23.0747C12.4133 24.0275 12.7919 24.9413 13.4656 25.6151C14.1394 26.2888 15.0532 26.6674 16.006 26.6674C16.9588 26.6674 17.8727 26.2888 18.5464 25.6151C19.2202 24.9413 19.5987 24.0275 19.5987 23.0747C19.5987 21.6107 18.812 20.0374 17.4653 18.4987C17.212 18.208 15.9547 17.004 16.0053 17.048Z" fill="#F7FEFC"/>
</g>
<defs>
<filter id="filter0_d_2058_257" x="-2.66666" y="-3.33344" width="37.3333" height="42.6668" filterUnits="userSpaceOnUse" color-interpolation-filters="sRGB">
<feFlood flood-opacity="0" result="BackgroundImageFix"/>
<feColorMatrix in="SourceAlpha" type="matrix" values="0 0 0 0 0 0 0 0 0 0 0 0 0 0 0 0 0 0 127 0" result="hardAlpha"/>
<feOffset dy="2"/>
<feGaussianBlur stdDeviation="4"/>
<feComposite in2="hardAlpha" operator="out"/>
<feColorMatrix type="matrix" values="0 0 0 0 0 0 0 0 0 0 0 0 0 0 0 0 0 0 1 0"/>
<feBlend mode="normal" in2="BackgroundImageFix" result="effect1_dropShadow_2058_257"/>
<feBlend mode="normal" in="SourceGraphic" in2="effect1_dropShadow_2058_257" result="shape"/>
</filter>
</defs>
</svg>
