<svg width="16" height="16" viewBox="0 0 16 16" fill="none" xmlns="http://www.w3.org/2000/svg">
<g id="fire_full_icon">
<path id="Vector" fill-rule="evenodd" clip-rule="evenodd" d="M5.13333 3.73334C5.86667 2.86668 6.66667 2.13334 7.6 1.46668C7.73333 1.40001 7.86667 1.33334 8 1.33334C8.13333 1.33334 8.26667 1.40001 8.4 1.46668C9.26667 2.13334 10.1333 2.93334 10.8667 3.73334C12.4 5.53334 13.3333 7.40001 13.3333 9.33334C13.3333 10.7333 12.8 12.1333 11.8 13.1333C10.8 14.1333 9.4 14.6667 8 14.6667C6.6 14.6667 5.2 14.1333 4.2 13.1333C3.2 12.1333 2.66667 10.7333 2.66667 9.33334C2.66667 7.40001 3.6 5.53334 5.13333 3.73334ZM8 8.53334C7.73333 8.73334 7.46667 9.00001 7.26667 9.26668C6.6 10.0667 6.2 10.8 6.2 11.5333C6.2 12 6.4 12.4667 6.73333 12.8C7.06667 13.1333 7.53333 13.3333 8 13.3333C8.46667 13.3333 8.93333 13.1333 9.26667 12.8C9.6 12.4667 9.8 12 9.8 11.5333C9.8 10.8 9.4 10 8.73333 9.26668C8.6 9.13334 8 8.53334 8 8.53334Z" fill="#FF3800"/>
</g>
</svg>
