<svg width="17" height="20" viewBox="0 0 17 20" fill="none" xmlns="http://www.w3.org/2000/svg">
<g id="Group">
<path id="Vector" fill-rule="evenodd" clip-rule="evenodd" d="M3.997 3.59197C5.10042 2.3332 6.33095 1.1918 7.669 0.185974C7.83855 0.0649388 8.04168 -0.00012207 8.25 -0.00012207C8.45832 -0.00012207 8.66145 0.0649388 8.831 0.185974C10.1659 1.19553 11.3961 2.33659 12.503 3.59197C14.834 6.25597 16.25 9.08797 16.25 12C16.25 14.1217 15.4071 16.1565 13.9069 17.6568C12.4066 19.1571 10.3717 20 8.25 20C6.12827 20 4.09344 19.1571 2.59315 17.6568C1.09285 16.1565 0.25 14.1217 0.25 12C0.25 9.08797 1.665 6.25697 3.997 3.59197ZM8.693 2.63397C8.54721 2.50874 8.39952 2.38573 8.25 2.26497L7.807 2.63497C6.98654 3.33792 6.21664 4.0978 5.503 4.90897C3.46 7.24297 2.25 9.66297 2.25 12C2.25 13.429 2.75 14.74 3.583 15.77C3.56815 15.6157 3.56047 15.4609 3.56 15.306C3.56 13.633 4.356 12.041 5.655 10.556C6.255 9.87097 6.935 9.22497 7.673 8.68597C7.84265 8.56471 8.04597 8.49952 8.2545 8.49952C8.46303 8.49952 8.66635 8.56471 8.836 8.68597C9.576 9.21597 10.256 9.87297 10.854 10.556C12.154 12.041 12.949 13.633 12.949 15.306C12.949 15.458 12.9417 15.6086 12.927 15.758C13.7846 14.6934 14.2515 13.367 14.25 12C14.25 9.66197 13.04 7.24297 10.997 4.90897C10.2834 4.09746 9.51349 3.33724 8.693 2.63397ZM8.254 10.786C7.869 11.128 7.499 11.486 7.16 11.874C6.15 13.028 5.56 14.208 5.56 15.306C5.56 16.0206 5.84388 16.706 6.3492 17.2113C6.85452 17.7166 7.53987 18.0005 8.2545 18.0005C8.96913 18.0005 9.65448 17.7166 10.1598 17.2113C10.6651 16.706 10.949 16.0206 10.949 15.306C10.949 14.208 10.359 13.028 9.349 11.874C9.159 11.656 8.216 10.753 8.254 10.786Z" fill="#F7FEFC"/>
</g>
</svg>
