<svg width="65" height="64" viewBox="0 0 65 64" fill="none" xmlns="http://www.w3.org/2000/svg">
<g id="Group">
<path id="Vector" d="M64.5 -0.100098H0.5V63.8999H64.5V-0.100098Z" fill="#010101"/>
<g id="Group_2">
<g id="Group_3">
<path id="Vector_2" d="M45.4404 30.9976C43.0329 30.9976 41.2273 32.9035 41.2273 35.2107C41.2273 37.1167 42.5313 38.5211 44.2367 39.0226L40.826 44.3392H44.0361L46.9451 39.4239H49.152V44.3392H51.8605V30.9976H45.4404ZM45.8417 37.0164C44.7382 37.0164 44.0361 36.1135 44.0361 35.2107C44.0361 34.2076 44.6379 33.3048 45.8417 33.3048H49.152V37.1167H45.8417V37.0164Z" fill="white"/>
<path id="Vector_3" d="M30.7947 30.9973L29.8918 33.4048H33.5031L31.2962 41.3296C30.6944 43.6368 33.1019 45.4424 35.1081 44.038L39.8229 40.828L38.4185 38.8217L33.7038 42.0318L36.8135 30.897H30.7947V30.9973Z" fill="white"/>
<path id="Vector_4" d="M35.8103 29.292C36.8135 29.292 37.7163 28.5898 37.7163 27.5867C37.7163 26.6839 36.9138 25.8813 35.8103 25.8813C34.8072 25.8813 33.9044 26.5835 33.9044 27.5867C33.9044 28.4895 34.8072 29.292 35.8103 29.292Z" fill="white"/>
<path id="Vector_5" d="M26.2806 41.731V27.8877H16.0486V35.3109C16.0486 38.8219 15.0454 40.9284 14.4436 41.731H13.2398V47.7498H15.848V44.1385H25.5784V47.7498H28.1865V41.731H26.2806ZM18.6567 35.1103V30.2952H23.6724V41.731H17.152C17.7539 40.8281 18.6567 38.3203 18.6567 35.1103Z" fill="white"/>
</g>
<g id="Group_4">
<path id="Vector_6" d="M19.6599 23.2729H17.9545V17.7557H14.8448V23.2729H13.1395V16.251H19.5596V23.2729H19.6599Z" fill="white"/>
<path id="Vector_7" d="M28.6881 19.6618C28.6881 21.8687 27.4843 23.2731 25.6787 23.2731C24.7759 23.2731 23.9733 22.8718 23.3715 22.2699V25.48H21.6661V16.0505H23.1708L23.2712 17.154C23.7727 16.3515 24.6755 15.9502 25.5784 15.9502C27.4843 16.0505 28.6881 17.4549 28.6881 19.6618ZM26.9828 19.6618C26.9828 18.2574 26.2806 17.4549 25.1771 17.4549C24.0737 17.4549 23.3715 18.3577 23.3715 19.6618C23.3715 21.0662 24.0737 21.8687 25.1771 21.8687C26.2806 21.969 26.9828 21.0662 26.9828 19.6618Z" fill="white"/>
<path id="Vector_8" d="M29.6912 19.6616C29.6912 17.4547 31.1959 16.0503 33.3025 16.0503C35.5094 16.0503 36.9138 17.4547 36.9138 19.6616C36.9138 21.8685 35.4091 23.2729 33.3025 23.2729C31.1959 23.3732 29.6912 21.9688 29.6912 19.6616ZM35.3088 19.6616C35.3088 18.2572 34.6066 17.4547 33.4028 17.4547C32.1991 17.4547 31.4969 18.2572 31.4969 19.6616C31.4969 21.066 32.1991 21.8685 33.4028 21.8685C34.5063 21.9688 35.3088 21.066 35.3088 19.6616Z" fill="white"/>
<path id="Vector_9" d="M44.0361 17.7557H41.6285V23.2729H39.9232V17.7557H37.4154V16.251H44.0361V17.7557Z" fill="white"/>
<path id="Vector_10" d="M51.7602 16.1509V23.1728H50.1552V18.5584L47.0454 23.1728H45.3401V16.1509H47.0454V20.7653L50.1552 16.1509H51.7602Z" fill="white"/>
</g>
</g>
</g>
</svg>
