<svg width="48" height="48" viewBox="0 0 48 48" fill="none" xmlns="http://www.w3.org/2000/svg">
<g filter="url(#filter0_d_64_3948)">
<circle cx="24" cy="22" r="15" fill="black" fill-opacity="0.2" stroke="#F7FEFC" stroke-width="2"/>
<path d="M17.7 20.2C17.4242 20.2 17.1512 20.2543 16.8964 20.3599C16.6416 20.4654 16.4101 20.6201 16.2151 20.8151C16.0201 21.0101 15.8654 21.2416 15.7599 21.4964C15.6543 21.7512 15.6 22.0242 15.6 22.3C15.6 22.5758 15.6543 22.8489 15.7599 23.1036C15.8654 23.3584 16.0201 23.5899 16.2151 23.7849C16.4101 23.9799 16.6416 24.1346 16.8964 24.2402C17.1512 24.3457 17.4242 24.4 17.7 24.4C18.257 24.4 18.7911 24.1788 19.1849 23.7849C19.5788 23.3911 19.8 22.857 19.8 22.3C19.8 21.7431 19.5788 21.2089 19.1849 20.8151C18.7911 20.4213 18.257 20.2 17.7 20.2ZM17.7 21.4C17.9387 21.4 18.1676 21.4948 18.3364 21.6636C18.5052 21.8324 18.6 22.0613 18.6 22.3C18.6 22.5387 18.5052 22.7676 18.3364 22.9364C18.1676 23.1052 17.9387 23.2 17.7 23.2C17.4613 23.2 17.2324 23.1052 17.0636 22.9364C16.8948 22.7676 16.8 22.5387 16.8 22.3C16.8 22.0613 16.8948 21.8324 17.0636 21.6636C17.2324 21.4948 17.4613 21.4 17.7 21.4ZM24 20.2C24.2758 20.2 24.5489 20.2543 24.8036 20.3599C25.0584 20.4654 25.2899 20.6201 25.4849 20.8151C25.6799 21.0101 25.8346 21.2416 25.9402 21.4964C26.0457 21.7512 26.1 22.0242 26.1 22.3C26.1 22.5758 26.0457 22.8489 25.9402 23.1036C25.8346 23.3584 25.6799 23.5899 25.4849 23.7849C25.2899 23.9799 25.0584 24.1346 24.8036 24.2402C24.5489 24.3457 24.2758 24.4 24 24.4C23.4431 24.4 22.9089 24.1788 22.5151 23.7849C22.1213 23.3911 21.9 22.857 21.9 22.3C21.9 21.7431 22.1213 21.2089 22.5151 20.8151C22.9089 20.4213 23.4431 20.2 24 20.2ZM24 21.4C23.7613 21.4 23.5324 21.4948 23.3636 21.6636C23.1948 21.8324 23.1 22.0613 23.1 22.3C23.1 22.5387 23.1948 22.7676 23.3636 22.9364C23.5324 23.1052 23.7613 23.2 24 23.2C24.2387 23.2 24.4676 23.1052 24.6364 22.9364C24.8052 22.7676 24.9 22.5387 24.9 22.3C24.9 22.0613 24.8052 21.8324 24.6364 21.6636C24.4676 21.4948 24.2387 21.4 24 21.4ZM30.3 20.2C30.5758 20.2 30.8489 20.2543 31.1036 20.3599C31.3584 20.4654 31.5899 20.6201 31.7849 20.8151C31.9799 21.0101 32.1346 21.2416 32.2402 21.4964C32.3457 21.7512 32.4 22.0242 32.4 22.3C32.4 22.5758 32.3457 22.8489 32.2402 23.1036C32.1346 23.3584 31.9799 23.5899 31.7849 23.7849C31.5899 23.9799 31.3584 24.1346 31.1036 24.2402C30.8489 24.3457 30.5758 24.4 30.3 24.4C29.7431 24.4 29.2089 24.1788 28.8151 23.7849C28.4213 23.3911 28.2 22.857 28.2 22.3C28.2 21.7431 28.4213 21.2089 28.8151 20.8151C29.2089 20.4213 29.7431 20.2 30.3 20.2ZM30.3 21.4C30.0613 21.4 29.8324 21.4948 29.6636 21.6636C29.4948 21.8324 29.4 22.0613 29.4 22.3C29.4 22.5387 29.4948 22.7676 29.6636 22.9364C29.8324 23.1052 30.0613 23.2 30.3 23.2C30.5387 23.2 30.7676 23.1052 30.9364 22.9364C31.1052 22.7676 31.2 22.5387 31.2 22.3C31.2 22.0613 31.1052 21.8324 30.9364 21.6636C30.7676 21.4948 30.5387 21.4 30.3 21.4Z" fill="#F7FEFC"/>
</g>
<defs>
<filter id="filter0_d_64_3948" x="0" y="0" width="48" height="48" filterUnits="userSpaceOnUse" color-interpolation-filters="sRGB">
<feFlood flood-opacity="0" result="BackgroundImageFix"/>
<feColorMatrix in="SourceAlpha" type="matrix" values="0 0 0 0 0 0 0 0 0 0 0 0 0 0 0 0 0 0 127 0" result="hardAlpha"/>
<feOffset dy="2"/>
<feGaussianBlur stdDeviation="4"/>
<feComposite in2="hardAlpha" operator="out"/>
<feColorMatrix type="matrix" values="0 0 0 0 0 0 0 0 0 0 0 0 0 0 0 0 0 0 1 0"/>
<feBlend mode="normal" in2="BackgroundImageFix" result="effect1_dropShadow_64_3948"/>
<feBlend mode="normal" in="SourceGraphic" in2="effect1_dropShadow_64_3948" result="shape"/>
</filter>
</defs>
</svg>
