<svg width="16" height="16" viewBox="0 0 16 16" fill="none" xmlns="http://www.w3.org/2000/svg">
<g id="search_icon" clip-path="url(#clip0_2058_316)">
<path id="Vector" d="M14.1482 8.48792L14.1484 8.48587C14.307 7.22994 14.1482 6.04534 13.5907 4.86308L13.5908 4.86304L13.5878 4.85697C13.0344 3.76153 12.2419 2.81922 11.2097 2.11195L11.2099 2.11165L11.1984 2.10466C10.1688 1.47753 8.89967 1.08333 7.70059 1.08333C6.66743 1.08333 5.63441 1.31933 4.68115 1.79108L4.6811 1.79098L4.67446 1.79452C3.64576 2.34277 2.85189 3.04964 2.21781 3.91257L2.21778 3.91254L2.21516 3.91625C1.65486 4.70849 1.25906 5.73045 1.10066 6.74948C0.9397 7.78504 1.10235 8.81051 1.41513 9.81664L1.41507 9.81666L1.41694 9.82221C1.73791 10.7753 2.37593 11.7204 3.17147 12.4291C3.9661 13.1369 4.84068 13.6083 5.86732 13.921L5.87582 13.9236L5.88448 13.9255C6.90242 14.158 7.93762 14.2396 8.98092 14.0013C9.93822 13.7826 10.8264 13.3616 11.5832 12.8007L13.4949 14.6928C13.6154 14.8121 13.8306 14.9167 14.0535 14.9167C14.2764 14.9167 14.4916 14.8121 14.6121 14.6928C14.7249 14.5811 14.8257 14.386 14.838 14.1785C14.9266 13.8736 14.8234 13.6375 14.6886 13.5041L12.7832 11.6182C13.4981 10.7086 13.9981 9.6021 14.1482 8.48792ZM7.62405 12.5227C4.92527 12.5227 2.66927 10.3571 2.66927 7.62121C2.66927 4.88291 4.85114 2.71969 7.62405 2.71969C10.3228 2.71969 12.5788 4.88528 12.5788 7.62121C12.5788 10.3571 10.3228 12.5227 7.62405 12.5227Z" fill="#0F0E0E" stroke="black" stroke-width="0.5"/>
</g>
<defs>
<clipPath id="clip0_2058_316">
<rect width="16" height="16" fill="white"/>
</clipPath>
</defs>
</svg>
