<svg width="23" height="22" viewBox="0 0 23 22" fill="none" xmlns="http://www.w3.org/2000/svg">
<g id="Group">
<path id="Vector" d="M11.75 21C13.0635 21.0016 14.3643 20.7437 15.5778 20.2411C16.7912 19.7384 17.8934 19.0009 18.821 18.071C19.7509 17.1434 20.4884 16.0412 20.991 14.8278C21.4937 13.6143 21.7516 12.3135 21.75 11C21.7516 9.68655 21.4937 8.38572 20.991 7.17225C20.4884 5.95878 19.7509 4.85659 18.821 3.92901C17.8934 2.99909 16.7912 2.26162 15.5778 1.75897C14.3643 1.25631 13.0635 0.998388 11.75 1.00001C10.4365 0.998388 9.13571 1.25631 7.92225 1.75897C6.70878 2.26162 5.60659 2.99909 4.679 3.92901C3.74908 4.85659 3.01161 5.95878 2.50896 7.17225C2.00631 8.38572 1.74838 9.68655 1.75 11C1.74838 12.3135 2.00631 13.6143 2.50896 14.8278C3.01161 16.0412 3.74908 17.1434 4.679 18.071C5.60659 19.0009 6.70878 19.7384 7.92225 20.2411C9.13571 20.7437 10.4365 21.0016 11.75 21Z" stroke="#F7FEFC" stroke-width="2" stroke-linejoin="round"/>
<path id="Vector_2" fill-rule="evenodd" clip-rule="evenodd" d="M11.75 17.5C12.0815 17.5 12.3995 17.3683 12.6339 17.1339C12.8683 16.8995 13 16.5815 13 16.25C13 15.9185 12.8683 15.6005 12.6339 15.3661C12.3995 15.1317 12.0815 15 11.75 15C11.4185 15 11.1005 15.1317 10.8661 15.3661C10.6317 15.6005 10.5 15.9185 10.5 16.25C10.5 16.5815 10.6317 16.8995 10.8661 17.1339C11.1005 17.3683 11.4185 17.5 11.75 17.5Z" fill="#F7FEFC"/>
<path id="Vector_3" d="M11.75 5V13" stroke="#F7FEFC" stroke-width="2" stroke-linecap="round" stroke-linejoin="round"/>
</g>
</svg>
