<svg width="77" height="24" viewBox="0 0 77 24" fill="none" xmlns="http://www.w3.org/2000/svg">
<g id="Group">
<path id="Vector" d="M65.1693 23.9844C62.6109 23.9844 60.0526 23.9844 57.4942 23.9844C55.2691 23.9844 53.9046 22.9789 53.2612 20.8431C53.1681 20.5313 53.1604 20.1806 53.1604 19.8454C53.1526 14.6151 53.1681 9.37707 53.1526 4.1468C53.1449 1.88633 54.7264 0.413121 56.2925 0.109126C56.6336 0.0467684 56.9825 0.00779474 57.3236 0.00779474C62.5102 0 67.689 0 72.8678 0C74.837 0 76.4108 1.1848 76.8682 3.03215C76.969 3.42969 77 3.8506 77 4.25593C77.0077 9.40825 77.0077 14.5684 77.0077 19.7207C77.0077 22.0357 75.682 23.5713 73.426 23.9844C73.2787 24.0156 73.1159 23.9766 72.9608 23.9766C70.3637 23.9844 67.7665 23.9844 65.1693 23.9844ZM70.4955 8.23904C70.3172 8.23904 70.1776 8.23904 70.0381 8.23904C68.1929 8.23904 66.3478 8.23904 64.5026 8.23904C64.239 8.23904 63.9599 8.26242 63.7041 8.32478C62.5334 8.62098 61.7349 9.65768 61.7271 10.8737C61.7194 12.8223 61.7582 14.771 61.7116 16.7119C61.6806 18.0994 62.9443 19.4167 64.3941 19.4011C67.1308 19.3699 69.8675 19.3933 72.6042 19.3933C72.736 19.3933 72.8756 19.3855 73.0073 19.3777C73.0073 14.4281 73.0073 9.52517 73.0073 4.60669C72.1701 4.60669 71.3483 4.60669 70.4877 4.60669C70.4955 5.82267 70.4955 7.00747 70.4955 8.23904ZM57.1685 9.6343C57.1685 12.9003 57.1685 16.1351 57.1685 19.3777C57.9981 19.3777 58.8044 19.3777 59.6262 19.3777C59.6262 16.1195 59.6262 12.8847 59.6262 9.6343C58.8044 9.6343 58.0058 9.6343 57.1685 9.6343ZM57.1608 4.60669C57.1608 5.44852 57.1608 6.25918 57.1608 7.09321C57.9903 7.09321 58.8044 7.09321 59.6339 7.09321C59.6339 6.25138 59.6339 5.44073 59.6339 4.60669C58.8121 4.60669 58.0058 4.60669 57.1608 4.60669Z" fill="#94C11F"/>
<path id="Vector_2" d="M17.6374 8.23921C18.9399 8.23921 20.2501 8.23921 21.5526 8.23921C23.1651 8.24701 24.2815 9.36945 24.2815 10.9908C24.2815 13.641 24.2738 16.2912 24.2893 18.9414C24.2893 19.2844 24.2117 19.4091 23.8396 19.4091C21.1029 19.3935 18.3662 19.4013 15.6217 19.4013C14.172 19.4013 13.0323 18.2788 13.0168 16.8212C13.0013 15.5507 13.0246 14.2723 13.0091 13.0018C13.0013 12.651 13.1099 12.5341 13.4742 12.5341C16.0559 12.5497 18.6375 12.5419 21.2269 12.5419C21.7309 12.5419 21.7309 12.5419 21.7309 12.0275C21.7309 11.7313 21.7231 11.4273 21.7309 11.1311C21.7386 10.905 21.6456 10.7881 21.4208 10.7803C21.2425 10.7725 21.0564 10.7569 20.8781 10.7569C18.4127 10.7569 15.9473 10.7491 13.4742 10.7647C13.1099 10.7647 12.9626 10.6712 12.9858 10.2892C13.0168 9.7358 13.0013 9.17458 12.9858 8.61336C12.9781 8.32496 13.0943 8.23142 13.3734 8.23921C14.7999 8.24701 16.2187 8.23921 17.6374 8.23921ZM18.6453 14.8102C17.7382 14.8102 16.8389 14.8258 15.9318 14.8024C15.6062 14.7946 15.4977 14.9115 15.5209 15.2311C15.5442 15.6208 15.5365 16.0106 15.5287 16.4003C15.5209 16.7043 15.6372 16.8524 15.9551 16.8524C17.777 16.8446 19.5989 16.8524 21.4208 16.8524C21.6689 16.8524 21.7696 16.7433 21.7619 16.5016C21.7541 16.0729 21.7464 15.6442 21.7619 15.2155C21.7774 14.9115 21.6689 14.8024 21.3587 14.8024C20.4517 14.818 19.5446 14.8102 18.6453 14.8102Z" fill="#2B4B5B"/>
<path id="Vector_3" d="M0.00775272 11.965C0.00775272 9.66558 0.0155054 7.36614 0 5.06669C0 4.70033 0.0852799 4.55223 0.472916 4.57562C1.02336 4.6068 1.58155 4.599 2.13975 4.57562C2.4266 4.56782 2.51963 4.66916 2.51963 4.95756C2.50413 5.91631 2.52739 6.87507 2.51188 7.84161C2.50413 8.1534 2.62042 8.23915 2.91502 8.23915C4.77567 8.23135 6.63633 8.23135 8.48923 8.23135C10.1871 8.23135 11.2725 9.33041 11.2725 11.0375C11.2725 12.8926 11.2725 14.7478 11.2725 16.6029C11.2725 18.2788 10.1716 19.3856 8.51249 19.3856C5.86881 19.3856 3.21738 19.3856 0.573701 19.3856C0.0155055 19.3856 0.0155054 19.3856 0.0155054 18.8088C0.00775272 16.5327 0.00775272 14.2489 0.00775272 11.965ZM5.62847 16.8523C6.49678 16.8523 7.35733 16.8445 8.22563 16.8601C8.59776 16.8679 8.77608 16.7432 8.76832 16.3535C8.76057 14.662 8.76057 12.9783 8.76832 11.2869C8.76832 10.9049 8.59776 10.7568 8.22563 10.7568C6.49678 10.7646 4.76017 10.7646 3.03131 10.7568C2.65143 10.7568 2.50413 10.9205 2.50413 11.2947C2.51188 12.9706 2.50413 14.6464 2.51188 16.3223C2.51188 16.79 2.5739 16.8445 3.06232 16.8523C3.92288 16.8523 4.77567 16.8523 5.62847 16.8523Z" fill="#2B4B5B"/>
<path id="Vector_4" d="M41.5081 4.58337C41.5236 4.80162 41.5391 4.9731 41.5391 5.15238C41.5391 7.43624 41.5391 9.7279 41.5391 12.0118C41.5391 12.534 41.5468 12.4794 42.043 12.5418C43.0586 12.6821 43.7796 12.3469 44.4308 11.5285C45.2681 10.4606 46.2605 9.51744 47.1675 8.50412C47.3458 8.30146 47.5397 8.21572 47.811 8.22351C48.377 8.2391 48.9507 8.21572 49.5166 8.23131C49.7027 8.2391 50.0205 8.27028 50.0515 8.36382C50.1368 8.63663 50.1446 8.93283 49.8965 9.19006C49.1755 9.95394 48.4855 10.7412 47.78 11.5207C47.1055 12.269 46.431 13.0173 45.7255 13.7967C46.0744 14.1943 46.4078 14.5684 46.7411 14.9426C47.78 16.0962 48.8344 17.242 49.85 18.419C49.9973 18.5905 50.0438 18.8711 50.0748 19.1128C50.0826 19.1907 49.9042 19.37 49.8112 19.37C49.0747 19.3934 48.3382 19.3934 47.6017 19.37C47.4544 19.3622 47.2761 19.2297 47.1675 19.105C46.0434 17.889 44.9115 16.673 43.8106 15.4414C43.5703 15.1764 43.3222 15.0517 42.9733 15.0829C42.6942 15.1063 42.4074 15.0907 42.1205 15.0907C41.5391 15.0907 41.5391 15.0907 41.5391 15.6987C41.5391 16.7743 41.5313 17.8578 41.5468 18.9335C41.5546 19.2842 41.4538 19.4168 41.0894 19.4012C40.5467 19.37 40.004 19.3778 39.4613 19.4012C39.1125 19.4168 38.9962 19.3076 38.9962 18.9491C39.0117 16.6496 39.0039 14.3502 39.0039 12.0507C39.0039 9.71231 39.0117 7.37388 38.9962 5.03546C38.9962 4.6769 39.097 4.55998 39.4536 4.57557C40.1358 4.60675 40.8026 4.58337 41.5081 4.58337Z" fill="#2B4B5B"/>
<path id="Vector_5" d="M26.0026 13.8123C26.0026 12.1208 26.0104 10.4372 25.9949 8.7457C25.9949 8.37155 26.0724 8.22345 26.4833 8.23125C29.1812 8.24684 31.8792 8.23904 34.5849 8.23904C36.1664 8.23904 37.2906 9.37708 37.2983 10.975C37.3061 13.6408 37.2983 16.2988 37.3061 18.9646C37.3061 19.3076 37.213 19.4245 36.8642 19.4089C36.3215 19.3855 35.7788 19.3777 35.2361 19.4089C34.864 19.4323 34.7477 19.3154 34.7477 18.9334C34.7632 16.5794 34.7554 14.2332 34.7554 11.8792C34.7554 11.6453 34.7399 11.4115 34.7477 11.1777C34.7554 10.8893 34.6159 10.7801 34.3523 10.7723C33.8484 10.7645 33.3444 10.7567 32.8405 10.7567C31.6543 10.7567 30.4604 10.7567 29.2743 10.7567C28.5455 10.7567 28.53 10.7723 28.53 11.4894C28.53 13.9604 28.5222 16.4235 28.5378 18.8945C28.5378 19.2764 28.4602 19.4323 28.0493 19.4011C27.4989 19.3621 26.9407 19.3777 26.3825 19.4011C26.0646 19.4167 25.9871 19.2842 25.9871 18.9958C26.0026 17.2653 26.0026 15.5427 26.0026 13.8123Z" fill="#2B4B5B"/>
<path id="Vector_6" d="M70.4955 8.23881C70.4955 7.00724 70.4955 5.82244 70.4955 4.61426C71.356 4.61426 72.1701 4.61426 73.0151 4.61426C73.0151 9.53274 73.0151 14.4356 73.0151 19.3853C72.8833 19.3931 72.7515 19.4009 72.612 19.4009C69.8752 19.4009 67.1385 19.3775 64.4018 19.4087C62.9521 19.4243 61.6961 18.107 61.7194 16.7195C61.7582 14.7708 61.7271 12.8221 61.7349 10.8812C61.7349 9.66525 62.5412 8.62075 63.7118 8.33235C63.9677 8.26999 64.239 8.24661 64.5104 8.24661C66.3555 8.23881 68.2007 8.24661 70.0458 8.24661C70.1776 8.23881 70.3172 8.23881 70.4955 8.23881ZM67.3711 16.8598C68.2394 16.8598 69.1 16.8676 69.9683 16.8598C70.4722 16.852 70.5032 16.8286 70.5032 16.3375C70.511 14.6539 70.4955 12.9624 70.511 11.2788C70.511 10.9124 70.3869 10.7643 70.0226 10.7643C68.2704 10.7721 66.5106 10.7721 64.7585 10.7643C64.3941 10.7643 64.27 10.9124 64.27 11.2788C64.2855 12.9624 64.27 14.6539 64.2778 16.3375C64.2778 16.8364 64.3088 16.8598 64.8127 16.8598C65.6655 16.8676 66.5183 16.8598 67.3711 16.8598Z" fill="white"/>
<path id="Vector_7" d="M57.1685 9.63428C58.0058 9.63428 58.8044 9.63428 59.6262 9.63428C59.6262 12.8847 59.6262 16.1195 59.6262 19.3777C58.8121 19.3777 58.0058 19.3777 57.1685 19.3777C57.1685 16.1351 57.1685 12.9003 57.1685 9.63428Z" fill="white"/>
<path id="Vector_8" d="M57.1608 4.60693C58.0058 4.60693 58.8121 4.60693 59.6339 4.60693C59.6339 5.44097 59.6339 6.25162 59.6339 7.09346C58.8121 7.09346 57.9903 7.09346 57.1608 7.09346C57.1608 6.25942 57.1608 5.44877 57.1608 4.60693Z" fill="white"/>
<path id="Vector_9" d="M67.3711 16.8601C66.5183 16.8601 65.6655 16.8679 64.8127 16.8601C64.301 16.8523 64.2778 16.829 64.2778 16.3379C64.27 14.6542 64.2855 12.9628 64.27 11.2791C64.27 10.9205 64.3941 10.7646 64.7585 10.7646C66.5106 10.7724 68.2704 10.7724 70.0226 10.7646C70.3792 10.7646 70.511 10.9127 70.511 11.2791C70.4955 12.9628 70.511 14.6542 70.5032 16.3379C70.5032 16.8367 70.4722 16.8601 69.9683 16.8601C69.1 16.8679 68.2317 16.8601 67.3711 16.8601Z" fill="#94C11F"/>
</g>
</svg>
